<svg xmlns="http://www.w3.org/2000/svg" viewBox="0 0 16 16" fill="#ffffff" id="Tree-Structure-Fill--Streamline-Phosphor-Fill" height="16" width="16">
  <desc>
    Tree Structure Fill Streamline Icon: https://streamlinehq.com
  </desc>
  <path d="M10.03259375 5.6770375V4.51555625h-1.16148125c-0.3207375 0 -0.58074375 0.26000625 -0.58074375 0.5807375v5.8074125c0 0.32073125 0.26000625 0.5807375 0.58074375 0.5807375h1.16148125v-1.16148125c0 -0.64146875 0.5200125 -1.16148125 1.16148125 -1.16148125h3.48444375c0.64146875 0 1.16148125 0.5200125 1.16148125 1.16148125v3.48444375c0 0.64145 -0.52003125 1.16145625 -1.16148125 1.16148125h-3.48444375c-0.64146875 0 -1.16148125 -0.5200125 -1.16148125 -1.16148125v-1.16148125h-1.16148125c-0.96220625 0 -1.742225 -0.78001875 -1.742225 -1.74221875v-2.3229625H4.805925v0.5807375c0 0.64146875 -0.5200125 1.16148125 -1.16148125 1.16148125H1.32148125c-0.64146875 0 -1.16148125 -0.5200125 -1.16148125 -1.16148125v-2.3229625c0 -0.6414875 0.51999375 -1.1615125 1.16148125 -1.16148125h2.3229625c0.64145 0.000025 1.16148125 0.52003125 1.16148125 1.16148125v0.5807375h2.3229625V5.09629375c0 -0.9622 0.78001875 -1.74221875 1.742225 -1.74221875h1.16148125V2.19259375c0 -0.64146875 0.5200125 -1.16148125 1.16148125 -1.16148125h3.48444375c0.64146875 0 1.16148125 0.5200125 1.16148125 1.16148125v3.48444375c0 0.64145 -0.52003125 1.16145 -1.16148125 1.16148125h-3.48444375c-0.6414875 0.000025 -1.16148125 -0.51999375 -1.16148125 -1.16148125Z" stroke-width="0.0625"></path>
</svg>