<svg xmlns="http://www.w3.org/2000/svg" viewBox="0 0 16 16" fill="#ffffff" id="Share-Fat-Fill--Streamline-Phosphor-Fill" height="16" width="16">
  <desc>
    Share Fat Fill Streamline Icon: https://streamlinehq.com
  </desc>
  <path d="m15.6757625 8.11543125 -5.59984375 5.59985c-0.30465 0.30498125 -0.8252125 0.1658125 -0.9370125 -0.2505125 -0.0127625 -0.0475125 -0.01920625 -0.0964875 -0.0191625 -0.14568125v-2.783825c-3.99689375 0.22679375 -6.73731875 2.818825 -7.5066 3.63990625 -0.4419625 0.47199375 -1.2291375 0.28855 -1.41691875 -0.3302 -0.03343125 -0.1101625 -0.0438625 -0.22601875 -0.0306375 -0.3403875 0.2596875 -2.2581375 1.49655625 -4.430175 3.4831 -6.11573125 1.64985625 -1.3999625 3.65530625 -2.2882375 5.47105625 -2.44363125V2.11939375c-0.00034375 -0.431075 0.4661 -0.70086875 0.83959375 -0.48561875 0.04261875 0.02455625 0.0818125 0.054625 0.116575 0.08943125l5.59985 5.59984375c0.21898125 0.2187375 0.21898125 0.57364375 0 0.79238125Z" stroke-width="0.0625"></path>
</svg>