<svg xmlns="http://www.w3.org/2000/svg" viewBox="0 0 16 16" fill="#000000" id="Tilde-Fill--Streamline-Phosphor-Fill" height="16" width="16">
  <desc>
    Tilde Fill Streamline Icon: https://streamlinehq.com
  </desc>
  <path d="M14.53333125 0.16H1.46666875C0.7450125 0.16 0.16 0.7450125 0.16 1.46666875v13.0666625c0 0.721675 0.58499375 1.3067 1.30666875 1.30666875h13.0666625c0.721675 0.00003125 1.30666875 -0.58499375 1.30666875 -1.30666875V1.46666875c0 -0.72165625 -0.5850125 -1.30666875 -1.30666875 -1.30666875Zm-0.8166625 8.1389c-1.0771875 1.225 -2.0694375 1.65701875 -2.97021875 1.65701875 -1.2201 0 -2.27115 -0.78481875 -3.13845 -1.4324375 -1.568 -1.1711 -2.60435 -1.94448125 -4.34466875 0.0392 -0.31190625 0.3945375 -0.93394375 0.30346875 -1.11966875 -0.16391875 -0.0952625 -0.2397375 -0.0405375 -0.513075 0.13966875 -0.6976625 2.53575 -2.89181875 4.6011 -1.34995 6.10866875 -0.22458125 1.568 1.1711 2.60435 1.94448125 4.34466875 -0.0392 0.31190625 -0.3945375 0.93394375 -0.30346875 1.11966875 0.16391875 0.0952625 0.2397375 0.0405375 0.513075 -0.13966875 0.6976625Z" stroke-width="0.0625"></path>
</svg>